<?xml version="1.0" encoding="utf-8"?>
<!-- Generator: Adobe Illustrator 14.0.0, SVG Export Plug-In . SVG Version: 6.00 Build 43363)  -->
<!DOCTYPE svg PUBLIC "-//W3C//DTD SVG 1.1//EN" "http://www.w3.org/Graphics/SVG/1.1/DTD/svg11.dtd">
<svg version="1.1" id="Layer_1" xmlns="http://www.w3.org/2000/svg" xmlns:xlink="http://www.w3.org/1999/xlink" x="0px" y="0px"
	 width="603.06px" height="186.019px" viewBox="0 0 603.06 186.019" enable-background="new 0 0 603.06 186.019"
	 xml:space="preserve">
<g>
	<path d="M105.64,117.43c3.313,0,6.278,1.396,8.197,4.361l4.885-2.965c-2.966-4.885-7.326-7.152-13.082-7.152
		c-4.013,0-7.327,0.871-9.769,3.314c-3.314,2.441-4.885,5.408-4.885,9.244c0,5.234,4.013,9.07,11.164,12.559l3.489,1.396
		c5.232,2.441,8.197,5.408,8.197,9.246l-2.441,6.801l-6.803,2.793l-6.803-2.268l-2.443-6.805l-6.278,1.396
		c0.522,4.012,1.918,7.326,4.884,9.77c2.966,2.266,6.279,3.836,10.116,3.836c4.361,0,8.199-1.57,11.688-4.361l4.361-11.162
		c0-6.281-3.838-11.164-12.211-14.479l-3.838-1.57c-4.36-1.918-6.803-4.361-6.803-7.152c0-1.918,1.047-3.488,2.966-4.883
		L105.64,117.43"/>
	<polyline points="140.352,118.301 152.039,118.301 152.039,112.545 122.037,112.545 122.037,118.301 134.073,118.301 
		134.073,161.91 140.352,161.91 140.352,118.301 	"/>
	<path d="M192.159,144.119v-31.574h-6.278v29.131c0,10.117-4.013,15.352-12.037,15.352c-7.85,0-11.687-5.234-11.687-15.352v-29.131
		h-6.28v31.574c0,5.232,1.396,10.115,4.884,13.605c3.315,3.314,7.676,5.232,13.083,5.232c5.757,0,10.118-1.918,13.432-5.232
		C190.589,154.234,192.159,149.352,192.159,144.119"/>
	<path d="M210.649,112.545h-10.641v49.365h10.118l-1.396-5.756h-2.441v-37.854h2.441c15.352,0,23.201,6.455,23.201,19.016
		c0,12.559-7.85,18.838-23.201,18.838l1.396,5.756c8.198,0,15.002-1.918,19.711-6.279c5.407-4.359,8.374-10.641,8.374-18.84
		c0-7.85-2.967-14.129-8.374-18.49C224.604,114.465,218.325,112.545,210.649,112.545"/>
	<polyline points="250.247,112.545 243.966,112.545 243.966,161.91 250.247,161.91 250.247,112.545 	"/>
	<path d="M307.81,137.316c0-7.328-2.441-13.084-7.675-17.967c-5.407-5.408-11.165-7.676-18.315-7.676
		c-7.327,0-13.083,2.268-17.968,7.676l3.838,3.836c3.838-3.836,8.722-5.756,14.13-5.756c5.756,0,10.64,1.92,14.478,5.756
		c3.314,3.838,5.233,8.723,5.233,14.131c0,5.232-1.919,10.117-5.757,13.955c-3.838,3.836-8.721,5.756-13.954,5.756
		c-5.408,0-9.77-1.92-13.607-5.756c-3.836-3.838-5.755-8.723-5.755-13.955c0-5.408,1.919-10.293,5.232-14.131l-3.838-3.836
		c-5.407,4.883-7.85,10.639-7.85,17.967c0,7.15,2.442,13.43,7.85,18.314c4.885,4.885,10.641,7.326,17.968,7.326
		c7.15,0,13.431-2.441,18.315-7.326C305.369,150.746,307.81,144.467,307.81,137.316"/>
	<path d="M370.782,125.105l4.36-3.838c-5.407-6.279-11.688-9.594-19.887-9.594c-7.15,0-13.082,2.268-18.314,7.676
		c-4.884,4.883-7.326,10.639-7.326,17.967c0,7.15,2.442,13.082,7.326,17.791c4.884,5.408,10.641,7.85,17.443,7.85
		s12.559-2.441,16.92-6.803s6.803-10.117,6.803-16.92v-1.918h-19.885v5.232h13.082l-5.407,10.814l-11.164,4.361
		c-5.233,0-9.594-2.094-13.432-6.453c-3.837-4.361-5.931-8.723-5.931-13.955c0-5.408,2.094-10.293,5.931-14.131
		c3.838-4.359,8.722-6.279,13.954-6.279C361.536,116.906,366.943,119.873,370.782,125.105"/>
	<polyline points="383.34,112.545 383.34,161.91 389.62,161.91 389.62,138.188 413.343,138.188 413.343,161.91 419.099,161.91 
		419.099,112.545 413.343,112.545 413.343,132.432 389.62,132.432 389.62,112.545 383.34,112.545 	"/>
	<polyline points="434.101,161.91 434.101,112.545 427.822,112.545 427.822,161.91 434.101,161.91 	"/>
	<path d="M449.103,112.545h-6.28v49.365h11.688l12.036-2.789c3.488-2.443,5.407-6.455,5.407-10.816l-2.966-8.199
		c-1.919-2.441-4.361-3.836-7.152-4.359v-0.35c3.314-1.57,5.233-4.885,5.233-9.246C467.069,116.906,461.313,112.545,449.103,112.545
		v5.408h1.569c7.151,0,10.641,2.791,10.641,8.197c0,5.234-3.489,8.199-10.641,8.199h-1.569v4.885h4.012
		c8.198,0,12.56,2.791,12.56,8.721c0,5.758-3.839,8.723-11.688,8.723h-4.884v-17.443v-4.885v-16.396"/>
	<polyline points="478.756,161.91 500.037,161.91 500.037,156.154 484.512,156.154 484.512,112.545 478.756,112.545 478.756,161.91 
			"/>
	<polyline points="509.631,161.91 509.631,112.545 503.352,112.545 503.352,161.91 509.631,161.91 	"/>
	<path d="M24.702,30.736v7.85h35.934C57.146,48.18,51.39,56.9,43.541,64.576c-7.151,7.326-14.479,12.211-22.677,15.002l4.884,6.453
		c9.595-4.012,18.84-10.641,27.562-20.932L74.59,86.381l6.279-6.803L57.67,59.344c6.278-8.723,11.163-18.316,13.605-28.608H24.702"
		/>
	<path d="M105.116,42.945h24.247c-1.57,7.152-4.361,13.084-8.373,18.316l-15.874-10.117l-5.407,5.232l16.048,10.641
		c-8.722,7.328-18.49,12.211-29.479,14.129l4.36,6.803c27.561-6.279,43.957-23.723,48.318-51.807h-29.479l3.838-7.326l-8.199-1.919
		c-4.884,12.559-12.559,21.803-23.199,27.038l5.233,5.93L105.116,42.945"/>
	<path d="M198.439,43.295l-7.85-3.314c-4.361,13.082-9.594,22.678-16.746,28.084c-6.279,5.232-16.571,8.199-29.479,9.244
		l1.919,8.199c15.002-1.57,25.991-5.93,34.364-12.559C187.275,66.67,193.206,56.9,198.439,43.295"/>
	<polyline points="201.405,34.572 198.09,24.456 192.159,25.503 195.997,36.143 201.405,34.572 	"/>
	<polyline points="143.317,45.213 140.352,52.541 159.714,60.215 162.679,52.541 143.317,45.213 	"/>
	<path d="M149.074,29.864l-3.313,7.152c6.803,1.918,13.082,4.361,19.361,7.326l3.314-7.326L149.074,29.864"/>
	<polyline points="182.565,26.375 185.88,37.539 191.636,36.143 188.322,24.979 182.565,26.375 	"/>
	<path d="M275.366,29.864l-3.315,7.152c6.28,1.57,12.56,4.012,18.84,7.326l3.838-7.326L275.366,29.864"/>
	<path d="M269.609,45.213l-3.314,7.328l19.362,7.674l3.313-7.674C285.134,50.098,278.854,47.656,269.609,45.213"/>
	<path d="M324.381,43.295l-7.327-3.314c-4.36,13.082-10.116,22.678-16.919,28.084c-6.28,5.232-16.397,8.199-29.48,9.244l1.919,8.199
		c15.002-1.57,26.166-5.93,33.84-12.559C313.741,66.67,319.497,56.9,324.381,43.295"/>
	<polyline points="321.939,36.143 327.696,34.572 324.381,24.456 318.451,25.503 321.939,36.143 	"/>
	<polyline points="312.17,37.539 318.101,36.143 314.613,24.979 308.857,26.375 312.17,37.539 	"/>
	<polyline points="392.586,32.654 389.62,23.061 383.865,24.456 386.829,34.225 392.586,32.654 	"/>
	<path d="M380.549,33.701l2.268-0.523l-2.791-9.594l-6.28,1.395l2.792,8.722H332.58v7.676h43.608
		c-1.569,13.082-6.803,23.199-16.048,29.654l-21.804,7.674l4.36,7.676c26.688-5.756,40.644-23.199,42.04-52.68H380.549"/>
	<path d="M442.474,28.817h-8.373v29.48c0,8.373-2.791,14.129-8.548,17.443L403.225,80.1l2.443,7.85l16.396-2.965l10.117-4.885
		c6.803-5.232,10.292-13.43,10.292-25.117V28.817"/>
	<polyline points="407.586,29.864 399.737,29.864 399.737,67.541 407.586,67.541 407.586,29.864 	"/>
	<path d="M464.278,41.9l6.279-16.049l-7.325-1.395c-2.966,12.21-8.199,21.282-15.525,28.606l2.966,6.803l6.28-6.277v35.758h7.325
		V41.9"/>
	<path d="M479.28,24.456c-2.442,10.64-7.326,18.839-13.605,25.118l4.36,6.455l10.641-15.002h2.791v48.318h7.326v-15h21.281v-6.805
		h-21.281V57.424h21.281v-6.803h-21.281v-9.594h22.852v-6.803H483.99l2.965-8.722L479.28,24.456"/>
	<polyline points="526.203,26.898 526.203,51.145 573.649,51.145 573.649,26.898 566.846,33.178 566.846,44.865 533.354,44.865 
		533.354,33.178 566.846,33.178 573.649,26.898 526.203,26.898 	"/>
	<polyline points="540.157,86.031 540.157,88.996 546.437,88.996 546.437,56.9 519.923,56.9 519.923,89.346 526.203,89.346 
		526.203,86.031 540.157,86.031 540.157,79.578 526.203,79.578 526.203,63.182 540.157,63.182 540.157,79.578 	"/>
	<polyline points="573.126,86.031 573.126,89.346 579.929,89.346 579.929,56.9 551.844,56.9 551.844,89.346 558.648,89.346 
		558.648,86.031 558.648,79.578 558.648,63.182 573.126,63.182 573.126,79.578 558.648,79.578 558.648,86.031 573.126,86.031 	"/>
	<path d="M204.37,38.586v7.674h29.48c-5.407,9.77-15.002,19.363-29.131,29.131l4.36,6.629c9.769-6.279,17.444-13.432,23.374-20.758
		l6.105-8.721v34.363h7.85V46.26h15.524v-7.674h-16.047V27.422h-7.327v11.164H204.37"/>
	<polyline points="584.638,99.463 584.638,98.592 18.422,98.592 18.422,99.463 584.638,99.463 	"/>
</g>
</svg>
